<svg width="50" height="50" viewBox="0 0 50 50" fill="none" xmlns="http://www.w3.org/2000/svg">
<circle cx="25" cy="25" r="25" fill="black"/>
<path d="M19.1289 15.9375H21.3906V28.0195C21.3906 29.6523 20.8984 30.9297 19.9141 31.8516C18.9375 32.7734 17.6328 33.2344 16 33.2344C14.3047 33.2344 12.9844 32.8008 12.0391 31.9336C11.0938 31.0664 10.6211 29.8516 10.6211 28.2891H12.8711C12.8711 29.2656 13.1367 30.0273 13.668 30.5742C14.207 31.1211 14.9844 31.3945 16 31.3945C16.9297 31.3945 17.6797 31.1016 18.25 30.5156C18.8281 29.9297 19.1211 29.1094 19.1289 28.0547V15.9375ZM30.25 25.3945C28.3203 24.8398 26.9141 24.1602 26.0312 23.3555C25.1562 22.543 24.7188 21.543 24.7188 20.3555C24.7188 19.0117 25.2539 17.9023 26.3242 17.0273C27.4023 16.1445 28.8008 15.7031 30.5195 15.7031C31.6914 15.7031 32.7344 15.9297 33.6484 16.3828C34.5703 16.8359 35.2812 17.4609 35.7812 18.2578C36.2891 19.0547 36.543 19.9258 36.543 20.8711H34.2812C34.2812 19.8398 33.9531 19.0312 33.2969 18.4453C32.6406 17.8516 31.7148 17.5547 30.5195 17.5547C29.4102 17.5547 28.543 17.8008 27.918 18.293C27.3008 18.7773 26.9922 19.4531 26.9922 20.3203C26.9922 21.0156 27.2852 21.6055 27.8711 22.0898C28.4648 22.5664 29.4688 23.0039 30.8828 23.4023C32.3047 23.8008 33.4141 24.2422 34.2109 24.7266C35.0156 25.2031 35.6094 25.7617 35.9922 26.4023C36.3828 27.043 36.5781 27.7969 36.5781 28.6641C36.5781 30.0469 36.0391 31.1562 34.9609 31.9922C33.8828 32.8203 32.4414 33.2344 30.6367 33.2344C29.4648 33.2344 28.3711 33.0117 27.3555 32.5664C26.3398 32.1133 25.5547 31.4961 25 30.7148C24.4531 29.9336 24.1797 29.0469 24.1797 28.0547H26.4414C26.4414 29.0859 26.8203 29.9023 27.5781 30.5039C28.3438 31.0977 29.3633 31.3945 30.6367 31.3945C31.8242 31.3945 32.7344 31.1523 33.3672 30.668C34 30.1836 34.3164 29.5234 34.3164 28.6875C34.3164 27.8516 34.0234 27.207 33.4375 26.7539C32.8516 26.293 31.7891 25.8398 30.25 25.3945Z" fill="white"/>
</svg>
